<svg xmlns="http://www.w3.org/2000/svg" viewBox="0 0 475 112"><path fill="#8A69D4" d="M107.2 77.4c2.9-6.8 4.3-14 4.3-21.4s-1.5-14.6-4.3-21.4c-2.8-6.5-6.7-12.4-11.8-17.5-5.1-5-10.9-9-17.5-11.8C71.1 2.5 63.9 1 56.5 1S41.8 2.5 35.1 5.3C28.5 8.1 22.7 12 17.6 17.1S8.6 28 5.8 34.6c-2.9 6.8-4.3 14-4.3 21.4S3 70.6 5.8 77.4c1.1 2.7 2.5 5.2 4 7.6.5.8 1 1.6 1.5 2.3 1.9 2.7 4 5.2 6.3 7.5 5.1 5 10.9 9 17.5 11.8 6.8 2.9 14 4.3 21.4 4.3s14.6-1.5 21.4-4.3c6.6-2.8 12.4-6.7 17.5-11.8 2.3-2.3 4.4-4.8 6.3-7.5.5-.7 1-1.5 1.5-2.3 1.5-2.4 2.8-4.9 4-7.6zm-84.3-55c9-9 20.9-13.9 33.6-13.9s24.6 4.9 33.6 13.9S104 43.3 104 56c0 3.6-.4 7-1.1 10.4-1.6 5.8-3.6 10.7-5.9 14.4-.5.8-1 1.6-1.6 2.4-.3.4-.5.7-.8 1.1-2.6 3.2-5.6 5.3-8.8 6-2.9.7-5.9.3-8.7-.6l7.7-7.7.1-.1c6.4-7 9.9-16.1 9.9-25.6 0-10.2-4-19.8-11.2-27-7.2-7.2-16.8-11.2-27-11.2s-19.8 4-27 11.2c-7.2 7.2-11.2 16.8-11.2 27 0 9.5 3.5 18.6 9.9 25.6l.1.1 7.8 7.8c-2.8.9-5.8 1.3-8.7.6-3.2-.7-6.2-2.8-8.8-6-.3-.3-.6-.7-.8-1.1-.5-.8-1.1-1.6-1.6-2.4-2.3-3.8-4.2-8.6-5.9-14.4C9.4 63 9 59.6 9 56c0-12.7 4.9-24.6 13.9-33.6zm48.9 47.7l.1-.1c3.5-3.8 5.4-8.8 5.4-14 0-11.5-9.3-20.8-20.8-20.8S35.6 44.5 35.6 56c0 5.2 1.9 10.1 5.4 14l.1.1 10.1 10.1c-1.6 1.5-3.8 3.4-6.5 5.2-.5.3-1 .7-1.5 1l-9.5-9.5c-5.1-5.6-7.9-12.9-7.9-20.5 0-8.2 3.2-15.9 9-21.7s13.5-9 21.7-9 15.9 3.2 21.7 9c5.8 5.8 9 13.5 9 21.7 0 7.6-2.8 14.9-7.9 20.5l-9.5 9.5c-.5-.3-1.1-.7-1.6-1-2.7-1.8-4.9-3.7-6.5-5.2l10.1-10.1zm-15.3 4.7l-9.9-10c-2.2-2.4-3.4-5.6-3.4-8.9 0-7.3 6-13.3 13.3-13.3s13.3 6 13.3 13.3c0 3.3-1.2 6.4-3.4 8.9l-9.9 10zm0 28.7c-7.9 0-15.6-1.9-22.4-5.6 9.6-1.5 18.2-8.5 22.4-12.4 1.8 1.7 4.4 3.9 7.4 6 3.6 2.5 7.2 4.3 10.6 5.4 1.5.5 2.9.8 4.3 1.1-6.7 3.6-14.4 5.5-22.3 5.5zm105.3-42.8c-1-.7-2.2-1.3-3.4-1.8l-3.6-1.2c-1-.3-2-.6-2.9-.9-.9-.3-1.6-.6-2.3-1-.6-.3-1-.7-1.3-1.1-.2-.3-.4-.6-.4-1v-.1c0-.9.3-1.5 1.1-2.1.8-.7 2-1 3.5-1 1.3 0 2.7.2 4.1.7 1.5.5 2.9 1.2 4.2 2l1.1.7 3.4-5.6-1.1-.7c-1.7-1.1-3.5-2-5.6-2.6-3.8-1.2-7.5-1.3-10.7-.3-1.4.5-2.7 1.1-3.7 2-1.1.9-1.9 2-2.5 3.2-.6 1.3-.9 2.6-.9 4.1v.1c0 1.7.4 3.1 1.1 4.2.7 1.1 1.6 2 2.7 2.7 1 .7 2.2 1.3 3.5 1.7l3.6 1.2c1 .3 1.9.6 2.8.9.8.3 1.6.6 2.2 1 .6.3 1 .7 1.3 1.1.2.3.4.7.4 1.2v.1c0 1.1-.4 1.9-1.2 2.5-.9.7-2.2 1-3.8 1-1.6 0-3.3-.3-4.9-.9-1.7-.6-3.3-1.5-4.8-2.7l-1.1-.8-3.8 5.3 1 .8c1.8 1.5 4 2.6 6.3 3.5 2.4.9 4.8 1.3 7.1 1.3 1.7 0 3.2-.2 4.7-.7 1.5-.5 2.8-1.1 3.8-2 1.1-.9 2-2 2.6-3.3.7-1.3 1-2.8 1-4.4v-.1c0-1.6-.4-3-1-4.1-.5-1.2-1.4-2.1-2.5-2.9zM208.6 44c-1.5 0-2.8.2-4 .5-1.2.3-2.3.8-3.3 1.4-1 .6-1.8 1.3-2.6 2.2-.3.3-.5.6-.8.9-.8-1.2-1.8-2.2-3-3-1.8-1.3-4.1-2-6.9-2-1.4 0-2.7.2-3.8.5-1.1.4-2.1.8-3 1.4-.6.4-1.2.9-1.7 1.4v-2.7h-7.1v33h7.1V59c0-1.2.2-2.4.6-3.4.4-1 .9-1.9 1.5-2.6.6-.7 1.4-1.3 2.2-1.7.8-.4 1.8-.6 2.8-.6 2 0 3.6.7 4.8 1.9 1.2 1.3 1.8 3.3 1.8 5.8v19.2h7.1V58.8c0-1.3.2-2.5.6-3.5.4-1 .9-1.9 1.5-2.5.6-.7 1.4-1.2 2.2-1.5.9-.3 1.8-.5 2.7-.5 2.1 0 3.7.7 4.8 1.9 1.2 1.3 1.8 3.3 1.8 5.9v19h7.1V57.5c0-4.1-1.1-7.4-3.3-9.9-2.1-2.4-5.2-3.6-9.1-3.6zm33 .1c-2.3 0-4.5.3-6.3.8-1.8.5-3.6 1.2-5.3 2l-1.1.5 2.3 6.2 1.3-.6c1.3-.6 2.7-1.1 4.1-1.5 1.4-.4 2.9-.5 4.6-.5 2.5 0 4.5.6 5.8 1.8 1.1 1 1.8 2.5 1.9 4.4-.9-.2-1.8-.4-2.7-.5-1.5-.2-3.3-.4-5.3-.4s-3.9.2-5.6.7c-1.7.5-3.3 1.2-4.5 2.1-1.3.9-2.4 2.1-3.1 3.6-.7 1.4-1.1 3.1-1.1 4.9v.1c0 1.8.4 3.4 1.1 4.7.7 1.3 1.7 2.5 2.9 3.4 1.2.9 2.6 1.6 4.1 2 1.5.4 3 .6 4.5.6 2.9 0 5.4-.6 7.3-1.7.8-.5 1.6-1 2.3-1.6v2.7h7.1V57.7c0-4.2-1.2-7.5-3.6-9.9-2.4-2.4-6-3.7-10.7-3.7zm7.3 19.2v1.8c0 1-.2 1.9-.6 2.7-.4.8-1.1 1.6-1.8 2.2-.8.6-1.7 1.1-2.8 1.5-1.1.3-2.3.5-3.5.5-.9 0-1.7-.1-2.5-.4-.8-.2-1.5-.6-2-1s-1-.9-1.3-1.5c-.3-.6-.5-1.2-.5-1.9v-.1c0-1.4.6-2.5 1.8-3.4 1.3-.9 3.3-1.4 5.8-1.4 1.8 0 3.4.1 4.7.4.9.2 1.9.4 2.7.6zm27.7-18.6c-1.4.4-2.7 1.1-3.8 1.9-1 .7-2 1.6-2.8 2.7v-4.6h-7.1v33h7.1V64.2c0-2.1.3-4 .9-5.6.6-1.6 1.3-2.9 2.3-3.9 1-1 2.1-1.8 3.4-2.3 1.3-.5 2.7-.8 4.2-.8h1.7v-7.5h-1.3c-1.7 0-3.2.2-4.6.6zm22.7-9.3h-7.1v9.2H288v6.6h4.2v17.1c0 1.7.2 3.2.7 4.4.5 1.3 1.2 2.3 2.1 3.2.9.8 2 1.4 3.2 1.8 1.2.3 2.4.5 3.8.5 1.2 0 2.3-.1 3.3-.4 1-.2 1.9-.6 2.8-1.1l.7-.4v-6.7l-1.9.9c-.7.3-1.3.6-1.9.7-.6.1-1.2.2-1.9.2-1.2 0-2.2-.3-2.9-.8-.8-.6-.9-1.9-.9-2.9V51.2h9.7v-6.6h-9.7v-9.2zM340 49.1c-1.3-1.6-3-2.9-4.9-3.8-1.9-.9-4.1-1.4-6.6-1.4-2.3 0-4.5.5-6.4 1.4-1.9.9-3.6 2.1-5 3.7s-2.5 3.4-3.3 5.5c-.8 2.1-1.2 4.3-1.2 6.7 0 2.5.4 4.9 1.3 7 .9 2.1 2.1 3.9 3.5 5.5 1.5 1.5 3.3 2.7 5.3 3.5 2 .8 4.1 1.2 6.4 1.2 3.1 0 5.8-.6 7.9-1.7 2.1-1.1 4-2.6 5.6-4.4l.9-1-4.7-4.2-.9.9c-1.2 1.2-2.4 2.2-3.8 2.9-1.3.7-2.9 1-4.8 1-1.2 0-2.3-.2-3.4-.6-1.1-.4-2-1-2.9-1.7-.9-.7-1.6-1.7-2.1-2.8-.4-.7-.6-1.5-.8-2.4h23.8l.1-1.2c0-.4.1-.8.1-1.1v-.7c0-2.4-.3-4.6-1-6.7-.7-2.1-1.7-4-3.1-5.6zm-11.5 1.3c1.3 0 2.4.2 3.4.7 1 .5 1.8 1.1 2.5 1.9.7.8 1.3 1.8 1.7 2.9.3.7.5 1.4.6 2.1h-16.6c.2-.8.4-1.5.7-2.2.5-1.1 1.1-2.1 1.9-2.9.7-.8 1.6-1.4 2.6-1.8 1-.5 2-.7 3.2-.7zm36.2-5.7c-1.4.4-2.7 1.1-3.9 1.9-1 .8-2 1.6-2.8 2.6v-4.6h-7.1v33h7.1V64.2c0-2.1.3-4 .9-5.6.6-1.6 1.3-2.9 2.3-3.9 1-1 2.1-1.8 3.4-2.3 1.3-.5 2.7-.8 4.2-.8h1.7v-7.5h-1.3c-1.6 0-3.1.2-4.5.6zm50.3 8.5h-26V33.4h-4.7v44.7h4.7V57.9h26v20.2h4.8V33.4H415zm52.5 17.3c1.4-1.8 2.5-3.9 3.4-6 1-2.8 1.6-5.7 1.6-8.7v-.1c0-3-.5-5.9-1.6-8.7-1-2.7-2.5-5.2-4.5-7.3-1.9-2.1-4.3-3.8-7-5.1-2.7-1.3-5.8-1.9-9.2-1.9-3.4 0-6.5.6-9.2 1.9-2.7 1.2-5.1 3-7 5.1-1.9 2.1-3.4 4.6-4.5 7.3-1 2.7-1.6 5.7-1.6 8.7v.1c0 3 .5 5.9 1.6 8.7 1 2.7 2.5 5.2 4.5 7.3 1.9 2.1 4.3 3.8 7 5.1 2.7 1.3 5.8 1.9 9.2 1.9 3.1 0 5.9-.5 8.5-1.6 2-.8 3.8-1.9 5.5-3.2l6.2 5.4 3.1-3.6-6-5.3zM451.7 63l8.9 7.8c-1.1.8-2.4 1.6-3.7 2.1-2 .8-4.2 1.2-6.5 1.2-2.6 0-5-.5-7.1-1.5-2.2-1-4-2.4-5.5-4-1.5-1.7-2.7-3.6-3.6-5.9-.8-2.2-1.3-4.6-1.3-7v-.1c0-2.4.4-4.8 1.2-7 .8-2.2 2-4.2 3.5-5.8 1.5-1.7 3.4-3 5.5-4s4.5-1.5 7.1-1.5c2.6 0 5 .5 7.1 1.5 2.2 1 4 2.4 5.5 4 1.5 1.7 2.7 3.6 3.6 5.9.8 2.2 1.3 4.6 1.3 7v.1c0 2.4-.4 4.8-1.2 7-.6 1.6-1.5 3.2-2.5 4.6l-8.1-7-1.1-1-3.1 3.6z"/></svg>